<?xml version="1.0" standalone="no"?>
<!DOCTYPE svg PUBLIC "-//W3C//DTD SVG 20010904//EN"
 "http://www.w3.org/TR/2001/REC-SVG-20010904/DTD/svg10.dtd">
<svg version="1.0" xmlns="http://www.w3.org/2000/svg"
 width="501.000000pt" height="501.000000pt" viewBox="0 0 501.000000 501.000000"
 preserveAspectRatio="xMidYMid meet">
<metadata>
Created by potrace 1.14, written by Peter Selinger 2001-2017
</metadata>
<g transform="translate(0.000000,501.000000) scale(0.100000,-0.100000)"
fill="#000000" stroke="none">
<path d="M2199 4466 c-2 -2 -25 -7 -50 -10 -142 -19 -319 -124 -348 -207 -9
-28 -8 -162 2 -222 14 -79 82 -177 160 -230 117 -80 382 -187 552 -223 77 -17
125 -26 160 -30 22 -3 51 -7 65 -10 70 -13 158 -19 285 -19 112 0 152 4 199
19 112 37 192 120 203 213 5 44 1 66 -28 140 -31 81 -41 95 -124 178 -141 140
-291 231 -495 299 -136 46 -203 63 -320 87 -54 11 -253 22 -261 15z m146 -370
c173 -15 459 -86 571 -143 43 -21 79 -44 81 -50 7 -21 -79 -31 -235 -27 -182
4 -217 7 -332 29 -47 9 -94 17 -105 19 -76 13 -208 80 -251 127 -43 47 53 63
271 45z"/>
<path d="M1271 3583 c-77 -27 -161 -133 -188 -235 -19 -75 -2 -218 34 -283 9
-15 0 -34 -42 -99 -107 -165 -189 -362 -230 -554 -2 -9 -12 -53 -21 -97 -28
-126 -25 -527 6 -709 5 -33 8 -62 5 -64 -2 -3 0 -12 4 -21 8 -15 20 -81 26
-143 2 -15 -17 -70 -45 -130 -129 -278 -135 -377 -32 -470 79 -72 160 -97 294
-93 102 3 146 12 255 49 l72 25 53 -26 c169 -81 277 -114 399 -119 101 -4 171
11 256 54 l62 32 56 -26 c30 -14 106 -55 167 -90 133 -76 200 -103 285 -113
112 -13 200 24 292 124 l44 48 70 -34 c66 -33 74 -34 181 -33 103 0 115 2 176
31 64 31 122 74 167 123 21 24 27 25 85 20 117 -11 225 3 307 42 25 12 49 22
52 22 28 4 149 110 167 146 32 67 16 177 -38 256 -91 133 -103 157 -130 264
-27 101 -30 142 -35 421 -4 259 -12 379 -30 464 -17 79 -61 204 -80 225 -22
24 -19 38 14 54 62 32 171 179 171 230 0 8 4 17 8 20 5 3 9 26 11 52 1 26 4
51 6 54 7 12 -19 95 -41 131 -47 75 -99 119 -150 126 -38 5 -138 -26 -184 -57
-14 -9 -43 -26 -65 -37 -22 -11 -54 -28 -70 -38 -30 -18 -31 -18 -85 17 -108
69 -354 182 -516 236 -96 33 -258 69 -358 80 -78 9 -328 8 -431 -1 -134 -11
-296 -49 -471 -110 -54 -19 -74 -22 -85 -13 -9 6 -48 55 -87 108 -83 113 -132
147 -214 153 -31 2 -71 -3 -97 -12z"/>
</g>
</svg>
